<svg width="80" height="80" viewBox="0 0 80 80" fill="none" xmlns="http://www.w3.org/2000/svg">
<g clip-path="url(#clip0_1_515)">
<path d="M0 40C0 17.9086 17.9086 0 40 0C62.0914 0 80 17.9086 80 40C80 62.0914 62.0914 80 40 80C17.9086 80 0 62.0914 0 40Z" fill="#D53235"/>
<path d="M41.4124 20L17.25 31.1895L23.2704 54.1019L27.8524 53.5392L26.5925 39.1328L28.097 38.4625L30.695 53.1894L38.5258 52.228L37.1338 36.3268L38.6236 35.6639L41.4809 51.8659L49.4022 50.8923L47.8781 33.4622L49.385 32.7919L52.509 50.5107L60.3397 49.5493V24.741L41.4124 20Z" fill="#FCFCFC"/>
<path d="M41.98 54.7502L42.3787 57.0057L60.3397 60V52.4947L41.9898 54.7477L41.98 54.7502Z" fill="#FCFCFC"/>
</g>
<defs>
<clipPath id="clip0_1_515">
<rect width="80" height="80" fill="white"/>
</clipPath>
</defs>
</svg>
