<svg width="88" height="32" viewBox="0 0 88 32" fill="none" xmlns="http://www.w3.org/2000/svg">
<path d="M14.7836 3.70097L0 10.5472L3.68355 24.566L6.487 24.2217L5.71617 15.4072L6.63668 14.9971L8.22625 24.0077L13.0174 23.4194L12.1658 13.6904L13.0773 13.2848L14.8255 23.1979L19.6721 22.6022L18.7396 11.9377L19.6616 11.5276L21.573 22.3687L26.3641 21.7805V6.60171L14.7836 3.70097ZM15.1309 24.9626L15.3748 26.3426L26.3641 28.1747V23.5826L15.1368 24.9626H15.1309ZM36.7577 22.0858V23.9762H39.0882C39.0884 24.3596 38.9894 24.7366 38.8008 25.0704C38.6036 25.4029 38.3118 25.6692 37.9626 25.8352C37.5451 26.026 37.0893 26.1181 36.6305 26.1046C36.1007 26.1193 35.5788 25.9732 35.1337 25.6855C34.6989 25.3837 34.3635 24.9597 34.1698 24.4672C33.9283 23.8513 33.8128 23.1932 33.83 22.5318C33.8123 21.8756 33.9306 21.2228 34.1773 20.6145C34.3789 20.1297 34.7169 19.7137 35.1502 19.4171C35.587 19.1335 36.0993 18.9884 36.62 19.001C36.8911 18.9986 37.1611 19.0344 37.4223 19.1072C37.6546 19.1738 37.8738 19.2796 38.0704 19.4201C38.2571 19.5546 38.4182 19.7213 38.5463 19.9125C38.6803 20.117 38.7813 20.3412 38.8457 20.5771H41.4306C41.363 20.0346 41.1868 19.5113 40.9127 19.0384C40.64 18.5718 40.282 18.1605 39.8575 17.826C39.4126 17.4782 38.9107 17.2103 38.3742 17.0342C37.7915 16.8445 37.1819 16.7505 36.5691 16.7558C35.8521 16.7498 35.1407 16.882 34.4736 17.145C33.8327 17.4002 33.2532 17.7884 32.7733 18.284C32.2711 18.8077 31.8833 19.4301 31.6342 20.1116C31.3498 20.9002 31.2114 21.734 31.2256 22.5723C31.2256 23.7637 31.4521 24.791 31.9052 25.6541C32.3335 26.4855 32.9932 27.1753 33.8046 27.6403C34.6267 28.079 35.5402 28.3188 36.4718 28.3407C37.4034 28.3625 38.3272 28.1657 39.169 27.766C39.8974 27.3965 40.5038 26.8249 40.9157 26.1196C41.3398 25.4021 41.5513 24.544 41.5504 23.5452V22.0843L36.7577 22.0858ZM68.9427 28.1941V16.9025H76.6766V18.992H71.4947V21.5006H75.6842V23.5901H71.4947V26.1046H76.6885V28.1941H68.9427ZM84.1844 20.2163C84.173 20.0223 84.1197 19.8329 84.0283 19.6614C83.9368 19.4898 83.8093 19.3401 83.6545 19.2225C83.3417 18.9845 82.9061 18.8662 82.3538 18.8662C82.0348 18.8556 81.7167 18.9064 81.4168 19.0159C81.1907 19.0984 80.9921 19.2426 80.8436 19.432C80.7149 19.6052 80.6451 19.815 80.6445 20.0307C80.6375 20.2027 80.6784 20.3732 80.7627 20.5232C80.8515 20.6723 80.9747 20.798 81.122 20.8899C81.2947 21.0019 81.4807 21.0919 81.6758 21.1578C81.9031 21.237 82.1351 21.3025 82.3703 21.3539L83.3626 21.5844C83.849 21.6878 84.3232 21.8424 84.7771 22.0454C85.1708 22.2209 85.5345 22.4573 85.8548 22.7459C86.148 23.0129 86.3816 23.3388 86.5403 23.7023C86.7064 24.0945 86.7885 24.5172 86.7813 24.9431C86.7981 25.5878 86.6128 26.2216 86.2514 26.7557C85.8694 27.2862 85.3416 27.6943 84.7322 27.9307C83.9724 28.2241 83.1621 28.3645 82.3478 28.3438C81.5215 28.3615 80.6995 28.2186 79.9275 27.9232C79.2775 27.6707 78.7184 27.2284 78.323 26.6539C77.9408 26.0892 77.7413 25.3847 77.7243 24.5405H80.1835C80.1867 24.8665 80.2895 25.1838 80.4781 25.4497C80.6667 25.7156 80.9321 25.9175 81.2387 26.0283C81.5846 26.1597 81.9524 26.2238 82.3224 26.2169C82.6619 26.2243 82.9998 26.169 83.3192 26.0537C83.5715 25.9647 83.7953 25.8096 83.9673 25.6047C84.119 25.4141 84.2018 25.1778 84.2023 24.9342C84.2046 24.7157 84.1293 24.5035 83.9898 24.3354C83.8188 24.1489 83.6066 24.0049 83.3701 23.9149C83.0362 23.7788 82.6911 23.6716 82.3388 23.5945L81.1309 23.3027C80.168 23.0732 79.4082 22.711 78.8514 22.216C78.2946 21.7211 78.0182 21.0505 78.0222 20.2044C78.0046 19.5551 78.2001 18.9179 78.579 18.3903C78.9756 17.8537 79.5098 17.4343 80.1251 17.1764C80.8347 16.8755 81.5996 16.7271 82.3703 16.7408C83.1373 16.7236 83.8991 16.8722 84.6035 17.1764C85.2016 17.4367 85.7153 17.8586 86.0868 18.3948C86.4438 18.9319 86.6315 19.5639 86.6256 20.2089L84.1844 20.2163ZM67.1227 28.1941H64.5976V19.6101L64.3387 19.6071L61.7882 28.1941H59.2646L56.783 19.6071L56.4612 19.6101V28.1941H53.9361V16.9025H58.2274L60.3947 24.4702H60.6566L62.824 16.9025H67.1227V28.1941ZM49.9607 28.1941H52.6953L48.904 16.904H45.439L41.6417 28.1941H44.3807L45.1187 25.7185H49.2228L49.9607 28.1941ZM45.7054 23.7487L46.9357 19.6101H47.3997L48.6361 23.7487H45.7054ZM87.4024 18.0969C87.2852 18.0965 87.1706 18.0617 87.0729 17.9968C86.9753 17.9319 86.8988 17.8397 86.8531 17.7317C86.8222 17.6582 86.8063 17.5794 86.8063 17.4997C86.8063 17.42 86.8222 17.3411 86.8531 17.2677C86.8829 17.1967 86.9261 17.1322 86.9803 17.0776C87.0354 17.0235 87.0998 16.9799 87.1704 16.9489C87.3193 16.8889 87.4856 16.8889 87.6344 16.9489C87.7053 16.9795 87.7697 17.0232 87.8245 17.0776C87.8791 17.1323 87.9227 17.1968 87.9532 17.2677C87.9841 17.3411 88 17.42 88 17.4997C88 17.5794 87.9841 17.6582 87.9532 17.7317C87.9227 17.8026 87.8791 17.8671 87.8245 17.9218C87.77 17.9766 87.7055 18.0203 87.6344 18.0505C87.5609 18.0813 87.4821 18.097 87.4024 18.0969ZM87.4024 17.9338C87.4797 17.9347 87.5558 17.9145 87.6224 17.8754C87.6865 17.8394 87.7405 17.7879 87.7796 17.7257C87.8178 17.6592 87.8379 17.5839 87.8379 17.5072C87.8379 17.4305 87.8178 17.3551 87.7796 17.2887C87.7398 17.2265 87.6853 17.1751 87.621 17.139C87.5545 17.1008 87.4791 17.0807 87.4024 17.0807C87.3257 17.0807 87.2504 17.1008 87.1839 17.139C87.1228 17.1762 87.0715 17.2275 87.0342 17.2887C86.995 17.3548 86.9742 17.4303 86.9742 17.5072C86.9742 17.5841 86.995 17.6596 87.0342 17.7257C87.0715 17.7868 87.1228 17.8381 87.1839 17.8754C87.2501 17.9143 87.3256 17.9345 87.4024 17.9338ZM87.1839 17.7616V17.2123H87.4503C87.486 17.2116 87.5214 17.2193 87.5536 17.2348C87.5825 17.2486 87.6069 17.2704 87.6239 17.2976C87.6415 17.3275 87.6503 17.3618 87.6494 17.3964C87.6505 17.4313 87.6411 17.4657 87.6224 17.4952C87.6057 17.5229 87.5805 17.5444 87.5506 17.5566C87.5178 17.5716 87.4819 17.5787 87.4458 17.5775H87.2662V17.4698H87.4159C87.4355 17.4708 87.4547 17.4644 87.4698 17.4518C87.4769 17.4445 87.4824 17.4358 87.486 17.4263C87.4896 17.4167 87.4912 17.4066 87.4907 17.3964C87.4915 17.3862 87.49 17.376 87.4864 17.3664C87.4827 17.3569 87.4771 17.3482 87.4698 17.341C87.4547 17.3285 87.4355 17.3221 87.4159 17.3231H87.3336V17.7616H87.1839ZM87.5416 17.5102L87.6644 17.7616H87.4982L87.386 17.5102H87.5416ZM42.2703 3.80574H44.8223V15.0974H42.2703V3.80574ZM56.9416 9.45156C56.9416 10.6909 56.7067 11.7386 56.2367 12.5948C55.8001 13.4213 55.1357 14.1054 54.3223 14.566C53.486 15.0122 52.5528 15.2456 51.6049 15.2456C50.6571 15.2456 49.7238 15.0122 48.8875 14.566C48.0739 14.1037 47.4096 13.4181 46.9731 12.5903C46.5032 11.7262 46.2682 10.6784 46.2682 9.44707C46.2682 8.21573 46.5032 7.16549 46.9731 6.29637C47.4088 5.47229 48.0709 4.7899 48.8815 4.32961C49.7181 3.88447 50.6513 3.65167 51.5989 3.65167C52.5466 3.65167 53.4797 3.88447 54.3163 4.32961C55.1297 4.79021 55.7941 5.47431 56.2307 6.30086C56.7007 7.163 56.9357 8.21323 56.9357 9.45156M54.3388 9.45156C54.3581 8.78721 54.2447 8.12567 54.005 7.50576C53.8153 7.02125 53.4854 6.60433 53.0575 6.30834C52.6197 6.0392 52.1158 5.89672 51.6019 5.89672C51.088 5.89672 50.5841 6.0392 50.1463 6.30834C49.7179 6.60456 49.3871 7.02131 49.1959 7.50576C48.7457 8.76391 48.7457 10.1392 49.1959 11.3974C49.3865 11.8822 49.7174 12.2991 50.1463 12.5948C50.5841 12.8639 51.088 13.0064 51.6019 13.0064C52.1158 13.0064 52.6197 12.8639 53.0575 12.5948C53.4859 12.2993 53.816 11.8822 54.005 11.3974C54.2445 10.7774 54.3579 10.1159 54.3388 9.45156ZM36.9074 11.1609L38.2185 15.0974H41.019L39.5611 10.857H37.5809L37.4627 10.4918C37.8399 10.4185 38.485 10.3047 39.0567 9.91556C39.4572 9.64311 39.7856 9.27756 40.0137 8.85027C40.2418 8.42297 40.3629 7.94671 40.3664 7.46235C40.3836 6.79332 40.2146 6.13266 39.8785 5.55397C39.5499 4.99361 39.0623 4.5435 38.4775 4.26076C37.7918 3.94322 37.0416 3.78949 36.2862 3.81173H31.7315V15.0974H34.285V11.1609H36.9074ZM36.8595 8.82442C36.5119 8.95222 36.143 9.01218 35.7728 9.00103H34.285V5.87877H35.7683C36.1388 5.86811 36.5076 5.9312 36.8535 6.06437C37.127 6.17314 37.358 6.3674 37.5121 6.61817C37.6692 6.87098 37.7473 7.1649 37.7366 7.46235C37.7488 7.75532 37.6715 8.04506 37.5151 8.29306C37.3602 8.53684 37.13 8.72341 36.8595 8.82442ZM57.1826 3.80574V5.90122H61.5682L61.6879 6.26793C61.3167 6.33978 60.6896 6.45054 60.1268 6.82174V15.1004H62.6518V5.89523H65.5885V3.79976L57.1826 3.80574Z" fill="#F9F9F9"/>
</svg>
